<svg id="svg" version="1.1" width="400" height="320" viewBox="0 0 400 320" xmlns="http://www.w3.org/2000/svg" xmlns:xlink="http://www.w3.org/1999/xlink" ><g id="svgg"><path id="path0" d="M90.562 104.820 L 90.557 165.448 101.678 165.364 L 112.800 165.280 112.888 105.440 C 112.936 72.528,112.896 45.273,112.800 44.873 L 112.624 44.145 101.595 44.168 L 90.567 44.191 90.562 104.820 M141.760 127.994 L 141.760 211.840 152.160 211.840 L 162.560 211.840 162.560 141.440 L 162.560 71.040 163.360 71.040 C 163.947 71.040,164.160 71.211,164.160 71.680 C 164.160 72.151,164.373 72.320,164.967 72.320 C 165.509 72.320,165.889 72.573,166.126 73.093 C 166.320 73.518,166.748 73.936,167.079 74.023 C 167.472 74.126,167.680 74.467,167.680 75.010 C 167.680 75.627,167.845 75.840,168.320 75.840 C 168.875 75.840,168.960 76.053,168.960 77.454 C 168.960 78.560,169.086 79.052,169.360 79.016 C 170.286 78.896,170.560 79.084,170.560 79.840 C 170.560 80.480,170.720 80.640,171.360 80.640 C 171.947 80.640,172.160 80.811,172.160 81.280 C 172.160 81.751,172.373 81.920,172.967 81.920 C 173.517 81.920,173.890 82.175,174.138 82.720 C 174.339 83.160,174.703 83.520,174.948 83.520 C 175.193 83.520,175.544 83.952,175.728 84.480 C 175.912 85.008,176.265 85.440,176.511 85.440 C 176.837 85.440,176.960 85.883,176.960 87.054 C 176.960 88.160,177.086 88.652,177.360 88.616 C 178.286 88.496,178.560 88.684,178.560 89.440 C 178.560 90.080,178.720 90.240,179.360 90.240 C 179.947 90.240,180.160 90.411,180.160 90.880 C 180.160 91.351,180.373 91.520,180.967 91.520 C 181.517 91.520,181.890 91.775,182.138 92.320 C 182.339 92.760,182.699 93.120,182.939 93.120 C 183.179 93.120,183.508 93.468,183.670 93.893 C 183.831 94.318,184.252 94.757,184.605 94.869 C 185.171 95.048,185.224 95.262,185.055 96.681 C 184.905 97.952,184.959 98.277,185.312 98.227 C 186.282 98.091,186.560 98.272,186.560 99.040 C 186.560 99.680,186.720 99.840,187.360 99.840 C 188.000 99.840,188.160 100.000,188.160 100.640 C 188.160 101.280,188.320 101.440,188.960 101.440 C 189.547 101.440,189.760 101.611,189.760 102.080 C 189.760 102.551,189.973 102.720,190.567 102.720 C 191.109 102.720,191.489 102.973,191.726 103.493 C 191.920 103.918,192.348 104.336,192.679 104.423 C 193.068 104.525,193.280 104.867,193.280 105.392 C 193.280 105.868,193.574 106.410,193.991 106.702 C 194.382 106.976,194.555 107.200,194.375 107.200 C 194.195 107.200,193.878 107.030,193.669 106.821 C 193.461 106.613,193.184 106.549,193.055 106.679 C 192.925 106.809,193.011 107.034,193.245 107.179 C 193.600 107.398,193.598 107.475,193.236 107.633 C 192.996 107.738,193.160 107.791,193.600 107.752 C 194.258 107.693,194.418 107.837,194.502 108.569 C 194.558 109.058,194.774 109.437,194.982 109.411 C 195.888 109.299,196.160 109.490,196.160 110.240 C 196.160 110.880,196.320 111.040,196.960 111.040 C 197.547 111.040,197.760 111.211,197.760 111.680 C 197.760 112.151,197.973 112.320,198.567 112.320 C 199.109 112.320,199.489 112.573,199.726 113.093 C 199.920 113.518,200.348 113.936,200.679 114.023 C 201.072 114.126,201.280 114.467,201.280 115.010 C 201.280 115.627,201.445 115.840,201.920 115.840 C 202.475 115.840,202.560 116.053,202.560 117.454 C 202.560 118.560,202.686 119.052,202.960 119.016 C 203.886 118.896,204.160 119.084,204.160 119.840 C 204.160 120.480,204.320 120.640,204.960 120.640 C 205.547 120.640,205.760 120.811,205.760 121.280 C 205.760 121.751,205.973 121.920,206.567 121.920 C 207.109 121.920,207.489 122.173,207.726 122.693 C 207.920 123.118,208.348 123.536,208.679 123.623 C 209.012 123.710,209.280 124.063,209.280 124.415 C 209.280 124.823,209.561 125.121,210.065 125.248 C 210.803 125.433,210.838 125.540,210.657 127.067 C 210.505 128.351,210.558 128.677,210.912 128.627 C 211.882 128.491,212.160 128.672,212.160 129.440 C 212.160 130.080,212.320 130.240,212.960 130.240 C 213.547 130.240,213.760 130.411,213.760 130.880 C 213.760 131.315,213.973 131.520,214.425 131.520 C 215.048 131.520,217.600 133.826,217.600 134.389 C 217.600 134.530,217.895 134.722,218.254 134.817 C 218.844 134.971,218.887 135.150,218.693 136.614 C 218.481 138.211,218.493 138.240,219.319 138.240 C 220.003 138.240,220.160 138.390,220.160 139.040 C 220.160 139.680,220.320 139.840,220.960 139.840 C 221.600 139.840,221.760 140.000,221.760 140.640 C 221.760 141.280,221.920 141.440,222.560 141.440 C 223.147 141.440,223.360 141.611,223.360 142.080 C 223.360 142.551,223.573 142.720,224.167 142.720 C 224.715 142.720,225.090 142.974,225.335 143.514 C 225.534 143.950,225.963 144.392,226.289 144.495 C 226.645 144.609,226.880 144.985,226.880 145.443 C 226.880 145.866,227.196 146.425,227.591 146.702 C 227.982 146.976,228.155 147.200,227.975 147.200 C 227.795 147.200,227.478 147.030,227.269 146.821 C 227.061 146.613,226.784 146.549,226.655 146.679 C 226.525 146.809,226.611 147.034,226.845 147.179 C 227.200 147.398,227.198 147.475,226.836 147.633 C 226.596 147.738,226.760 147.791,227.200 147.752 C 227.858 147.693,228.018 147.837,228.102 148.569 C 228.158 149.058,228.374 149.437,228.582 149.411 C 229.488 149.299,229.760 149.490,229.760 150.240 C 229.760 150.880,229.920 151.040,230.560 151.040 C 231.147 151.040,231.360 151.211,231.360 151.680 C 231.360 152.151,231.573 152.320,232.167 152.320 C 232.709 152.320,233.089 152.573,233.326 153.093 C 233.520 153.518,233.948 153.936,234.279 154.023 C 234.672 154.126,234.880 154.467,234.880 155.010 C 234.880 155.627,235.045 155.840,235.520 155.840 C 236.075 155.840,236.160 156.053,236.160 157.454 C 236.160 158.560,236.286 159.052,236.560 159.016 C 237.486 158.896,237.760 159.084,237.760 159.840 C 237.760 160.480,237.920 160.640,238.560 160.640 C 239.138 160.640,239.360 160.812,239.360 161.259 C 239.360 161.696,239.618 161.907,240.240 161.979 C 240.784 162.041,241.241 162.355,241.436 162.800 C 241.610 163.196,241.937 163.520,242.164 163.520 C 242.390 163.520,242.708 163.868,242.870 164.293 C 243.031 164.718,243.452 165.157,243.805 165.269 C 244.371 165.448,244.424 165.662,244.255 167.081 C 244.105 168.352,244.159 168.677,244.512 168.627 C 245.482 168.491,245.760 168.672,245.760 169.440 C 245.760 170.080,245.920 170.240,246.560 170.240 C 247.147 170.240,247.360 170.411,247.360 170.880 C 247.360 171.310,247.573 171.520,248.011 171.520 C 248.682 171.520,250.880 173.478,250.880 174.076 C 250.880 174.262,251.231 174.574,251.660 174.769 C 252.376 175.095,252.425 175.254,252.252 176.707 C 252.105 177.955,252.160 178.277,252.512 178.227 C 253.482 178.091,253.760 178.272,253.760 179.040 C 253.760 179.680,253.920 179.840,254.560 179.840 C 255.200 179.840,255.360 180.000,255.360 180.640 C 255.360 181.280,255.520 181.440,256.160 181.440 C 256.747 181.440,256.960 181.611,256.960 182.080 C 256.960 182.551,257.173 182.720,257.767 182.720 C 258.309 182.720,258.689 182.973,258.926 183.493 C 259.120 183.918,259.548 184.336,259.879 184.423 C 260.268 184.525,260.480 184.867,260.480 185.392 C 260.480 185.868,260.774 186.410,261.191 186.702 C 261.582 186.976,261.755 187.200,261.575 187.200 C 261.395 187.200,261.078 187.030,260.869 186.821 C 260.661 186.613,260.384 186.549,260.255 186.679 C 260.125 186.809,260.211 187.034,260.445 187.179 C 260.800 187.398,260.798 187.475,260.436 187.633 C 260.196 187.738,260.360 187.791,260.800 187.752 C 261.458 187.693,261.618 187.837,261.702 188.569 C 261.758 189.058,261.974 189.437,262.182 189.411 C 263.088 189.299,263.360 189.490,263.360 190.240 C 263.360 190.880,263.520 191.040,264.160 191.040 C 264.747 191.040,264.960 191.211,264.960 191.680 C 264.960 192.151,265.173 192.320,265.767 192.320 C 266.309 192.320,266.689 192.573,266.926 193.093 C 267.120 193.518,267.548 193.936,267.879 194.023 C 268.236 194.116,268.480 194.464,268.480 194.880 C 268.480 195.311,268.726 195.644,269.120 195.747 C 269.650 195.886,269.760 196.184,269.760 197.477 C 269.760 198.931,269.816 199.040,270.560 199.040 C 271.200 199.040,271.360 199.200,271.360 199.840 C 271.360 200.480,271.520 200.640,272.160 200.640 C 272.747 200.640,272.960 200.811,272.960 201.280 C 272.960 201.751,273.173 201.920,273.767 201.920 C 274.317 201.920,274.690 202.175,274.938 202.720 C 275.139 203.160,275.499 203.520,275.739 203.520 C 275.979 203.520,276.308 203.868,276.470 204.293 C 276.631 204.718,277.063 205.160,277.430 205.277 C 278.026 205.466,278.074 205.653,277.887 207.064 C 277.682 208.605,277.696 208.640,278.519 208.640 C 279.203 208.640,279.360 208.790,279.360 209.440 C 279.360 210.080,279.520 210.240,280.160 210.240 C 280.800 210.240,280.960 210.400,280.960 211.040 L 280.960 211.840 295.362 211.840 L 309.765 211.840 309.758 128.016 L 309.751 44.192 299.355 44.169 L 288.960 44.145 288.960 114.553 C 288.960 170.663,288.879 184.961,288.560 184.965 C 288.284 184.968,288.269 185.042,288.512 185.205 C 288.705 185.334,288.861 185.659,288.858 185.926 C 288.856 186.193,288.952 186.805,289.073 187.286 C 289.204 187.810,289.162 188.160,288.966 188.160 C 288.787 188.160,288.640 187.941,288.640 187.673 C 288.640 187.405,288.267 187.016,287.811 186.808 C 287.046 186.460,286.994 186.310,287.146 184.895 C 287.310 183.374,287.303 183.360,286.376 183.360 C 285.591 183.360,285.440 183.231,285.440 182.560 C 285.440 181.973,285.269 181.760,284.800 181.760 C 284.331 181.760,284.160 181.547,284.160 180.960 C 284.160 180.320,284.000 180.160,283.360 180.160 C 282.718 180.160,282.560 180.000,282.560 179.354 C 282.560 178.656,282.454 178.574,281.768 178.747 C 281.132 178.906,280.904 178.787,280.609 178.140 C 280.407 177.697,279.972 177.264,279.641 177.177 C 279.216 177.066,279.040 176.729,279.040 176.030 C 279.040 175.283,278.896 175.040,278.453 175.040 C 278.131 175.040,277.867 174.819,277.867 174.549 C 277.867 174.238,277.978 174.170,278.172 174.364 C 278.517 174.709,279.360 174.483,279.360 174.046 C 279.360 173.889,279.252 173.777,279.120 173.798 C 278.175 173.947,277.760 173.692,277.760 172.960 C 277.760 172.320,277.600 172.160,276.960 172.160 C 276.320 172.160,276.160 172.000,276.160 171.360 C 276.160 170.720,276.000 170.560,275.360 170.560 C 274.718 170.560,274.560 170.400,274.560 169.754 C 274.560 169.050,274.457 168.974,273.747 169.152 C 273.049 169.327,272.879 169.213,272.556 168.358 C 272.337 167.776,271.951 167.360,271.632 167.360 C 271.308 167.360,271.043 167.066,270.982 166.640 C 270.917 166.184,270.623 165.883,270.177 165.820 C 269.532 165.728,269.490 165.591,269.662 164.140 C 269.845 162.598,269.829 162.560,269.005 162.560 C 268.317 162.560,268.160 162.411,268.160 161.760 C 268.160 161.120,268.000 160.960,267.360 160.960 C 266.773 160.960,266.560 160.789,266.560 160.320 C 266.560 159.968,266.344 159.662,266.080 159.640 C 265.816 159.618,265.420 159.582,265.200 159.560 C 264.980 159.538,264.662 159.205,264.493 158.820 C 264.324 158.435,263.928 158.052,263.613 157.970 C 263.295 157.886,263.040 157.525,263.040 157.156 C 263.040 156.710,262.770 156.424,262.216 156.285 C 261.431 156.088,261.401 156.004,261.606 154.519 C 261.815 152.999,261.799 152.960,260.990 152.960 C 260.318 152.960,260.160 152.808,260.160 152.160 C 260.160 151.520,260.000 151.360,259.360 151.360 C 258.718 151.360,258.560 151.200,258.560 150.554 C 258.560 149.856,258.454 149.774,257.768 149.947 C 257.127 150.107,256.904 149.987,256.597 149.313 C 256.388 148.855,256.021 148.480,255.782 148.480 C 255.542 148.480,255.184 148.123,254.985 147.686 C 254.786 147.250,254.342 146.803,253.999 146.694 C 253.459 146.523,253.397 146.284,253.543 144.928 C 253.703 143.435,253.674 143.360,252.936 143.360 C 252.322 143.360,252.160 143.193,252.160 142.560 C 252.160 141.920,252.000 141.760,251.360 141.760 C 250.720 141.760,250.560 141.600,250.560 140.960 C 250.560 140.320,250.400 140.160,249.760 140.160 C 249.173 140.160,248.960 139.989,248.960 139.520 C 248.960 138.947,248.446 138.699,247.575 138.850 C 247.430 138.876,247.146 138.461,246.945 137.928 C 246.739 137.383,246.346 136.960,246.045 136.960 C 245.476 136.960,245.002 134.831,245.502 134.522 C 246.127 134.135,245.685 133.698,244.800 133.828 C 243.927 133.956,243.840 133.888,243.840 133.065 C 243.840 132.373,243.689 132.160,243.200 132.160 C 242.731 132.160,242.560 131.947,242.560 131.360 C 242.560 130.720,242.400 130.560,241.760 130.560 C 241.173 130.560,240.960 130.389,240.960 129.920 C 240.960 129.352,240.459 129.104,239.594 129.244 C 239.459 129.266,239.189 128.935,238.995 128.509 C 238.801 128.083,238.384 127.667,238.068 127.584 C 237.752 127.502,237.446 127.093,237.387 126.677 C 237.317 126.184,237.035 125.885,236.577 125.820 C 235.932 125.728,235.890 125.591,236.062 124.140 C 236.245 122.598,236.229 122.560,235.405 122.560 C 234.717 122.560,234.560 122.411,234.560 121.760 C 234.560 121.120,234.400 120.960,233.760 120.960 C 233.140 120.960,232.960 120.796,232.960 120.227 C 232.960 119.638,232.787 119.497,232.080 119.507 C 231.488 119.516,231.104 119.302,230.907 118.853 C 230.746 118.486,230.314 118.054,229.947 117.893 C 229.580 117.732,229.233 117.272,229.177 116.871 C 229.109 116.397,228.886 116.174,228.537 116.231 C 228.082 116.306,228.014 116.062,228.090 114.640 C 228.175 113.032,228.144 112.960,227.370 112.960 C 226.719 112.960,226.560 112.803,226.560 112.160 C 226.560 111.520,226.400 111.360,225.760 111.360 C 225.118 111.360,224.960 111.200,224.960 110.554 C 224.960 109.856,224.854 109.774,224.168 109.947 C 223.527 110.107,223.304 109.987,222.997 109.313 C 222.788 108.855,222.412 108.480,222.161 108.480 C 221.910 108.480,221.541 108.048,221.342 107.520 C 221.119 106.928,220.752 106.560,220.386 106.560 C 219.864 106.560,219.813 106.367,219.965 104.960 C 220.130 103.426,220.105 103.360,219.349 103.360 C 218.721 103.360,218.560 103.197,218.560 102.560 C 218.560 101.920,218.400 101.760,217.760 101.760 C 217.120 101.760,216.960 101.600,216.960 100.960 C 216.960 100.320,216.800 100.160,216.160 100.160 C 215.533 100.160,215.360 99.997,215.360 99.404 C 215.360 98.768,215.232 98.673,214.547 98.804 C 213.868 98.934,213.672 98.795,213.357 97.960 C 213.117 97.325,212.759 96.960,212.374 96.960 C 211.837 96.960,211.787 96.777,211.940 95.360 C 212.035 94.470,211.980 93.760,211.816 93.760 C 211.653 93.760,211.520 93.904,211.520 94.080 C 211.520 94.256,211.368 94.400,211.181 94.400 C 210.995 94.400,210.931 94.256,211.040 94.080 C 211.149 93.904,211.085 93.760,210.899 93.760 C 210.712 93.760,210.560 93.400,210.560 92.960 C 210.560 92.320,210.400 92.160,209.760 92.160 C 209.120 92.160,208.960 92.000,208.960 91.360 C 208.960 90.720,208.800 90.560,208.160 90.560 C 207.518 90.560,207.360 90.400,207.360 89.754 C 207.360 89.056,207.254 88.974,206.568 89.147 C 205.932 89.306,205.704 89.187,205.409 88.540 C 205.207 88.097,204.784 87.667,204.468 87.584 C 204.152 87.502,203.846 87.093,203.787 86.677 C 203.716 86.178,203.435 85.885,202.961 85.818 C 202.295 85.723,202.256 85.598,202.434 84.138 C 202.621 82.602,202.604 82.560,201.793 82.560 C 201.118 82.560,200.960 82.408,200.960 81.760 C 200.960 81.120,200.800 80.960,200.160 80.960 C 199.518 80.960,199.360 80.800,199.360 80.154 C 199.360 79.456,199.254 79.374,198.568 79.547 C 197.927 79.707,197.704 79.587,197.397 78.913 C 197.188 78.455,196.817 78.080,196.573 78.080 C 196.329 78.080,195.956 77.684,195.745 77.200 C 195.533 76.716,195.144 76.320,194.880 76.320 C 194.503 76.320,194.419 75.960,194.490 74.640 C 194.575 73.032,194.544 72.960,193.770 72.960 C 193.119 72.960,192.960 72.803,192.960 72.160 C 192.960 71.520,192.800 71.360,192.160 71.360 C 191.520 71.360,191.360 71.200,191.360 70.560 C 191.360 69.920,191.200 69.760,190.560 69.760 C 189.933 69.760,189.760 69.597,189.760 69.004 C 189.760 68.377,189.628 68.274,188.985 68.397 C 188.369 68.515,188.105 68.342,187.698 67.555 C 187.416 67.010,187.009 66.600,186.793 66.642 C 186.518 66.697,186.415 66.218,186.450 65.040 C 186.497 63.465,186.452 63.360,185.730 63.360 C 185.122 63.360,184.960 63.192,184.960 62.560 C 184.960 61.920,184.800 61.760,184.160 61.760 C 183.520 61.760,183.360 61.600,183.360 60.960 C 183.360 60.320,183.200 60.160,182.560 60.160 C 181.918 60.160,181.760 60.000,181.760 59.354 C 181.760 58.650,181.657 58.574,180.947 58.752 C 180.249 58.927,180.079 58.813,179.756 57.958 C 179.542 57.389,179.150 56.960,178.845 56.960 C 178.276 56.960,177.802 54.831,178.302 54.522 C 178.837 54.191,178.530 53.760,177.760 53.760 C 177.120 53.760,176.960 53.600,176.960 52.960 C 176.960 52.320,176.800 52.160,176.160 52.160 C 175.520 52.160,175.360 52.000,175.360 51.360 C 175.360 50.720,175.200 50.560,174.560 50.560 C 173.973 50.560,173.760 50.389,173.760 49.920 C 173.760 49.352,173.259 49.104,172.394 49.244 C 172.259 49.266,171.984 48.923,171.783 48.482 C 171.582 48.041,171.217 47.680,170.972 47.680 C 170.727 47.680,170.378 47.252,170.195 46.729 C 170.013 46.206,169.769 45.792,169.652 45.807 C 168.929 45.905,168.640 45.666,168.640 44.973 L 168.640 44.186 155.200 44.167 L 141.760 44.147 141.760 127.994 M90.635 201.516 L 90.720 211.680 101.760 211.680 L 112.800 211.680 112.800 201.600 L 112.800 191.520 101.675 191.436 L 90.551 191.352 90.635 201.516 M39.360 241.600 L 39.360 250.240 200.160 250.240 L 360.960 250.240 360.960 241.600 L 360.960 232.960 200.160 232.960 L 39.360 232.960 39.360 241.600 " stroke="none" fill="#ffffff" fill-rule="evenodd"></path><path id="path1" d="" stroke="none" fill="#5555ff" fill-rule="evenodd"></path><path id="path2" d="" stroke="none" fill="#9999ff" fill-rule="evenodd"></path><path id="path3" d="M168.640 44.960 C 168.640 45.664,168.927 45.905,169.652 45.807 C 169.769 45.792,170.013 46.206,170.195 46.729 C 170.378 47.252,170.727 47.680,170.972 47.680 C 171.217 47.680,171.566 48.007,171.748 48.407 C 172.274 49.560,173.834 49.554,173.701 48.398 C 173.630 47.778,173.394 47.491,172.900 47.420 C 172.469 47.359,172.161 47.056,172.100 46.633 C 172.038 46.210,171.693 45.872,171.200 45.752 C 170.711 45.633,170.433 45.363,170.485 45.057 C 170.535 44.766,170.268 44.476,169.845 44.363 C 168.724 44.063,168.640 44.104,168.640 44.960 M178.196 54.550 C 177.758 54.989,178.345 56.960,178.915 56.960 C 179.248 56.960,179.520 57.148,179.520 57.379 C 179.520 58.254,180.343 58.966,181.083 58.732 C 182.066 58.420,181.874 57.213,180.800 56.952 C 180.306 56.832,180.033 56.564,180.086 56.252 C 180.140 55.935,179.804 55.618,179.182 55.402 C 178.638 55.212,178.283 54.909,178.395 54.728 C 178.601 54.394,178.470 54.277,178.196 54.550 M186.299 65.840 C 186.355 66.325,186.576 66.685,186.793 66.642 C 187.009 66.600,187.413 67.005,187.691 67.542 C 188.060 68.255,188.387 68.493,188.898 68.420 C 189.946 68.271,189.870 66.817,188.800 66.546 C 188.360 66.435,188.044 66.153,188.097 65.921 C 188.212 65.421,187.593 64.972,186.779 64.965 C 186.333 64.961,186.221 65.165,186.299 65.840 M164.160 73.280 C 164.160 74.091,164.284 74.240,164.960 74.240 C 165.600 74.240,165.760 74.400,165.760 75.040 C 165.760 75.680,165.920 75.840,166.560 75.840 C 167.283 75.840,167.527 76.219,167.411 77.160 C 167.398 77.270,167.741 77.360,168.173 77.360 C 168.788 77.360,168.960 77.194,168.960 76.600 C 168.960 76.053,168.780 75.840,168.320 75.840 C 167.845 75.840,167.680 75.627,167.680 75.010 C 167.680 74.467,167.472 74.126,167.079 74.023 C 166.748 73.936,166.320 73.518,166.126 73.093 C 165.573 71.880,164.160 72.015,164.160 73.280 M194.299 75.440 C 194.359 75.964,194.594 76.320,194.880 76.320 C 195.144 76.320,195.533 76.716,195.745 77.200 C 195.956 77.684,196.329 78.080,196.573 78.080 C 196.817 78.080,197.181 78.440,197.382 78.880 C 197.760 79.709,198.250 79.867,198.991 79.397 C 199.655 78.976,199.291 77.970,198.398 77.760 C 197.959 77.656,197.600 77.366,197.600 77.115 C 197.600 76.864,197.240 76.477,196.800 76.255 C 196.360 76.033,196.038 75.650,196.085 75.404 C 196.132 75.159,195.844 74.870,195.445 74.763 C 194.289 74.453,194.192 74.510,194.299 75.440 M172.160 82.880 C 172.160 83.691,172.284 83.840,172.960 83.840 C 173.600 83.840,173.760 84.000,173.760 84.640 C 173.760 85.280,173.920 85.440,174.560 85.440 C 175.200 85.440,175.360 85.600,175.360 86.240 C 175.360 86.880,175.520 87.040,176.160 87.040 C 176.800 87.040,176.960 86.880,176.960 86.240 C 176.960 85.767,176.777 85.440,176.511 85.440 C 176.265 85.440,175.912 85.008,175.728 84.480 C 175.544 83.952,175.193 83.520,174.948 83.520 C 174.703 83.520,174.339 83.160,174.138 82.720 C 173.574 81.483,172.160 81.597,172.160 82.880 M202.316 84.924 C 202.267 85.526,202.423 85.741,202.965 85.818 C 203.435 85.885,203.717 86.180,203.787 86.677 C 203.846 87.093,204.152 87.502,204.468 87.584 C 204.784 87.667,205.200 88.082,205.394 88.507 C 205.760 89.311,206.256 89.463,206.991 88.997 C 207.631 88.592,207.299 87.535,206.496 87.420 C 206.064 87.358,205.762 87.055,205.700 86.620 C 205.645 86.235,205.420 85.902,205.200 85.880 C 204.980 85.858,204.666 85.822,204.502 85.800 C 204.338 85.778,204.158 85.436,204.102 85.040 C 203.947 83.945,202.406 83.845,202.316 84.924 M180.160 92.480 C 180.160 93.291,180.284 93.440,180.960 93.440 C 181.600 93.440,181.760 93.600,181.760 94.240 C 181.760 94.880,181.920 95.040,182.560 95.040 C 183.200 95.040,183.360 95.200,183.360 95.840 C 183.360 96.775,184.749 97.011,185.086 96.134 C 185.400 95.316,185.318 95.095,184.622 94.874 C 184.260 94.759,183.831 94.318,183.670 93.893 C 183.508 93.468,183.179 93.120,182.939 93.120 C 182.699 93.120,182.339 92.760,182.138 92.320 C 181.574 91.083,180.160 91.197,180.160 92.480 M211.520 94.720 C 211.200 94.927,211.173 95.032,211.440 95.035 C 211.670 95.038,211.840 95.448,211.840 96.000 C 211.840 96.707,211.990 96.960,212.410 96.960 C 212.752 96.960,213.128 97.353,213.351 97.945 C 213.641 98.712,213.886 98.906,214.462 98.825 C 215.543 98.671,215.496 97.221,214.400 96.953 C 213.907 96.832,213.633 96.564,213.686 96.252 C 213.740 95.935,213.404 95.618,212.782 95.402 C 212.238 95.212,211.883 94.909,211.995 94.728 C 212.246 94.323,212.138 94.321,211.520 94.720 M189.760 103.680 C 189.760 104.491,189.884 104.640,190.560 104.640 C 191.200 104.640,191.360 104.800,191.360 105.440 C 191.360 106.062,191.524 106.240,192.099 106.240 C 192.505 106.240,193.117 106.451,193.459 106.710 C 193.800 106.968,194.220 107.184,194.391 107.190 C 194.562 107.195,194.382 106.976,193.991 106.702 C 193.574 106.410,193.280 105.868,193.280 105.392 C 193.280 104.867,193.068 104.525,192.679 104.423 C 192.348 104.336,191.920 103.918,191.726 103.493 C 191.173 102.280,189.760 102.415,189.760 103.680 M219.840 105.760 C 219.840 106.314,220.015 106.560,220.410 106.560 C 220.749 106.560,221.126 106.948,221.342 107.520 C 221.541 108.048,221.910 108.480,222.161 108.480 C 222.412 108.480,222.781 108.840,222.982 109.280 C 223.360 110.109,223.850 110.267,224.591 109.797 C 225.231 109.392,224.899 108.335,224.096 108.220 C 223.669 108.159,223.361 107.855,223.300 107.433 C 223.239 107.012,222.890 106.668,222.400 106.545 C 221.960 106.434,221.644 106.153,221.697 105.921 C 221.810 105.426,221.195 104.972,220.400 104.965 C 220.015 104.962,219.840 105.210,219.840 105.760 M197.760 113.280 C 197.760 114.091,197.884 114.240,198.560 114.240 C 199.200 114.240,199.360 114.400,199.360 115.040 C 199.360 115.680,199.520 115.840,200.160 115.840 C 200.883 115.840,201.127 116.219,201.011 117.160 C 200.998 117.270,201.341 117.360,201.773 117.360 C 202.388 117.360,202.560 117.194,202.560 116.600 C 202.560 116.053,202.380 115.840,201.920 115.840 C 201.445 115.840,201.280 115.627,201.280 115.010 C 201.280 114.467,201.072 114.126,200.679 114.023 C 200.348 113.936,199.920 113.518,199.726 113.093 C 199.173 111.880,197.760 112.015,197.760 113.280 M227.899 115.440 C 227.970 116.056,228.161 116.293,228.537 116.231 C 228.886 116.174,229.109 116.397,229.177 116.871 C 229.233 117.272,229.580 117.732,229.947 117.893 C 230.314 118.054,230.746 118.486,230.907 118.853 C 231.349 119.860,232.800 119.769,232.800 118.734 C 232.800 118.160,232.585 117.898,232.000 117.760 C 231.560 117.656,231.200 117.366,231.200 117.115 C 231.200 116.864,230.840 116.475,230.400 116.250 C 229.960 116.025,229.644 115.674,229.697 115.470 C 229.815 115.017,229.166 114.572,228.379 114.565 C 227.933 114.561,227.821 114.765,227.899 115.440 M205.760 122.880 C 205.760 123.691,205.884 123.840,206.560 123.840 C 207.200 123.840,207.360 124.000,207.360 124.640 C 207.360 125.274,207.521 125.440,208.138 125.440 C 208.699 125.440,208.944 125.639,209.018 126.157 C 209.135 126.976,210.187 127.319,210.597 126.671 C 211.073 125.920,210.905 125.458,210.080 125.251 C 209.563 125.122,209.280 124.826,209.280 124.415 C 209.280 124.063,209.012 123.710,208.679 123.623 C 208.348 123.536,207.920 123.118,207.726 122.693 C 207.173 121.480,205.760 121.615,205.760 122.880 M236.017 124.711 C 235.713 125.502,235.816 125.712,236.560 125.818 C 237.035 125.885,237.316 126.178,237.387 126.677 C 237.446 127.093,237.752 127.502,238.068 127.584 C 238.384 127.667,238.785 128.049,238.961 128.434 C 239.476 129.564,241.032 129.535,240.901 128.398 C 240.830 127.778,240.594 127.491,240.100 127.420 C 239.664 127.358,239.362 127.057,239.300 126.622 C 239.236 126.175,238.913 125.866,238.400 125.762 C 237.867 125.654,237.600 125.386,237.600 124.960 C 237.600 124.197,236.293 123.991,236.017 124.711 M213.760 132.480 C 213.760 133.291,213.884 133.440,214.560 133.440 C 215.200 133.440,215.360 133.600,215.360 134.240 C 215.360 134.880,215.520 135.040,216.160 135.040 C 216.806 135.040,216.960 135.199,216.960 135.861 C 216.960 136.568,217.082 136.668,217.840 136.581 C 218.974 136.451,219.303 135.091,218.265 134.819 C 217.899 134.724,217.600 134.530,217.600 134.389 C 217.600 133.826,215.048 131.520,214.425 131.520 C 213.899 131.520,213.760 131.721,213.760 132.480 M245.396 134.550 C 244.998 134.948,245.540 136.960,246.045 136.960 C 246.339 136.960,246.730 137.359,246.914 137.846 C 247.402 139.139,249.049 139.276,248.901 138.011 C 248.829 137.395,248.569 137.089,248.000 136.951 C 247.506 136.832,247.233 136.564,247.286 136.252 C 247.340 135.935,247.004 135.618,246.382 135.402 C 245.838 135.212,245.483 134.909,245.595 134.728 C 245.801 134.394,245.670 134.277,245.396 134.550 M223.360 143.680 C 223.360 144.491,223.484 144.640,224.160 144.640 C 224.800 144.640,224.960 144.800,224.960 145.440 C 224.960 146.062,225.124 146.240,225.699 146.240 C 226.105 146.240,226.717 146.451,227.059 146.710 C 227.400 146.968,227.820 147.184,227.991 147.190 C 228.162 147.195,227.982 146.976,227.591 146.702 C 227.196 146.425,226.880 145.866,226.880 145.443 C 226.880 144.985,226.645 144.609,226.289 144.495 C 225.963 144.392,225.534 143.950,225.335 143.514 C 224.774 142.282,223.360 142.401,223.360 143.680 M253.440 145.606 C 253.440 146.211,253.639 146.580,254.031 146.705 C 254.357 146.808,254.786 147.250,254.985 147.686 C 255.184 148.123,255.542 148.480,255.782 148.480 C 256.021 148.480,256.381 148.840,256.582 149.280 C 256.960 150.109,257.450 150.267,258.191 149.797 C 258.831 149.392,258.499 148.335,257.696 148.220 C 257.269 148.159,256.961 147.855,256.900 147.433 C 256.838 147.010,256.493 146.672,256.000 146.552 C 255.539 146.440,255.233 146.159,255.278 145.888 C 255.323 145.621,254.944 145.263,254.398 145.057 C 253.474 144.708,253.440 144.728,253.440 145.606 M231.360 153.280 C 231.360 154.091,231.484 154.240,232.160 154.240 C 232.800 154.240,232.960 154.400,232.960 155.040 C 232.960 155.680,233.120 155.840,233.760 155.840 C 234.483 155.840,234.727 156.219,234.611 157.160 C 234.598 157.270,234.941 157.360,235.373 157.360 C 235.988 157.360,236.160 157.194,236.160 156.600 C 236.160 156.053,235.980 155.840,235.520 155.840 C 235.045 155.840,234.880 155.627,234.880 155.010 C 234.880 154.467,234.672 154.126,234.279 154.023 C 233.948 153.936,233.520 153.518,233.326 153.093 C 232.773 151.880,231.360 152.015,231.360 153.280 M261.440 155.325 C 261.440 155.875,261.666 156.147,262.240 156.291 C 262.772 156.425,263.040 156.715,263.040 157.156 C 263.040 157.525,263.295 157.886,263.613 157.970 C 263.928 158.052,264.324 158.425,264.493 158.798 C 265.007 159.934,266.633 159.946,266.503 158.814 C 266.430 158.178,266.198 157.891,265.700 157.820 C 265.269 157.759,264.961 157.456,264.900 157.033 C 264.838 156.610,264.493 156.272,264.000 156.152 C 263.511 156.033,263.233 155.763,263.285 155.457 C 263.335 155.166,263.068 154.876,262.645 154.763 C 261.528 154.464,261.440 154.505,261.440 155.325 M239.360 162.859 C 239.360 163.692,239.481 163.840,240.160 163.840 C 240.800 163.840,240.960 164.000,240.960 164.640 C 240.960 165.274,241.121 165.440,241.738 165.440 C 242.299 165.440,242.544 165.639,242.618 166.157 C 242.735 166.976,243.787 167.319,244.197 166.671 C 244.645 165.964,244.520 165.496,243.822 165.274 C 243.460 165.159,243.031 164.718,242.870 164.293 C 242.708 163.868,242.390 163.520,242.164 163.520 C 241.937 163.520,241.610 163.196,241.436 162.800 C 240.901 161.582,239.360 161.626,239.360 162.859 M269.617 164.711 C 269.313 165.502,269.416 165.712,270.160 165.818 C 270.623 165.883,270.917 166.177,270.982 166.640 C 271.048 167.103,271.305 167.360,271.702 167.360 C 272.042 167.360,272.320 167.548,272.320 167.779 C 272.320 168.654,273.143 169.366,273.883 169.132 C 274.866 168.820,274.674 167.613,273.600 167.352 C 273.076 167.225,272.833 166.970,272.895 166.614 C 272.961 166.237,272.709 166.014,272.073 165.887 C 271.394 165.751,271.161 165.524,271.178 165.015 C 271.204 164.208,269.907 163.955,269.617 164.711 M247.360 172.480 C 247.360 173.291,247.484 173.440,248.160 173.440 C 248.800 173.440,248.960 173.600,248.960 174.240 C 248.960 174.880,249.120 175.040,249.760 175.040 C 250.400 175.040,250.560 175.200,250.560 175.840 C 250.560 176.775,251.949 177.011,252.286 176.134 C 252.597 175.323,252.526 175.164,251.680 174.778 C 251.240 174.578,250.880 174.262,250.880 174.076 C 250.880 173.478,248.682 171.520,248.011 171.520 C 247.501 171.520,247.360 171.728,247.360 172.480 M277.867 174.549 C 277.867 174.819,278.131 175.040,278.453 175.040 C 278.896 175.040,279.040 175.283,279.040 176.030 C 279.040 176.729,279.216 177.066,279.641 177.177 C 279.972 177.264,280.400 177.682,280.594 178.107 C 280.960 178.911,281.456 179.063,282.191 178.597 C 282.854 178.177,282.491 177.171,281.598 176.953 C 281.087 176.828,280.833 176.567,280.892 176.228 C 280.951 175.888,280.694 175.625,280.172 175.494 C 279.725 175.382,279.360 175.075,279.360 174.811 C 279.360 174.535,279.173 174.403,278.919 174.501 C 278.676 174.594,278.340 174.532,278.172 174.364 C 277.978 174.170,277.867 174.238,277.867 174.549 M256.960 183.680 C 256.960 184.491,257.084 184.640,257.760 184.640 C 258.400 184.640,258.560 184.800,258.560 185.440 C 258.560 186.062,258.724 186.240,259.299 186.240 C 259.705 186.240,260.317 186.451,260.659 186.710 C 261.000 186.968,261.420 187.184,261.591 187.190 C 261.762 187.195,261.582 186.976,261.191 186.702 C 260.774 186.410,260.480 185.868,260.480 185.392 C 260.480 184.867,260.268 184.525,259.879 184.423 C 259.548 184.336,259.120 183.918,258.926 183.493 C 258.373 182.280,256.960 182.415,256.960 183.680 M287.040 185.565 C 287.040 186.206,287.265 186.560,287.840 186.822 C 288.280 187.022,288.640 187.405,288.640 187.673 C 288.640 187.941,288.787 188.160,288.966 188.160 C 289.163 188.160,289.203 187.811,289.068 187.280 C 288.944 186.796,288.860 186.159,288.880 185.864 C 288.902 185.541,288.544 185.198,287.978 185.000 C 287.087 184.690,287.040 184.718,287.040 185.565 M264.960 193.280 C 264.960 194.091,265.084 194.240,265.760 194.240 C 266.400 194.240,266.560 194.400,266.560 195.040 C 266.560 195.680,266.720 195.840,267.360 195.840 C 268.000 195.840,268.160 196.000,268.160 196.640 C 268.160 197.280,268.320 197.440,268.960 197.440 C 269.991 197.440,270.126 196.010,269.120 195.747 C 268.726 195.644,268.480 195.311,268.480 194.880 C 268.480 194.464,268.236 194.116,267.879 194.023 C 267.548 193.936,267.120 193.518,266.926 193.093 C 266.373 191.880,264.960 192.015,264.960 193.280 M272.960 202.880 C 272.960 203.691,273.084 203.840,273.760 203.840 C 274.400 203.840,274.560 204.000,274.560 204.640 C 274.560 205.280,274.720 205.440,275.360 205.440 C 276.006 205.440,276.160 205.599,276.160 206.261 C 276.160 206.968,276.282 207.068,277.040 206.981 C 278.172 206.851,278.465 205.605,277.440 205.280 C 277.068 205.162,276.631 204.718,276.470 204.293 C 276.308 203.868,275.979 203.520,275.739 203.520 C 275.499 203.520,275.139 203.160,274.938 202.720 C 274.374 201.483,272.960 201.597,272.960 202.880 " stroke="none" fill="#c3c3ff" fill-rule="evenodd"></path><path id="path4" d="" stroke="none" fill="#00ffff" fill-rule="evenodd"></path></g></svg>